<svg id="svg" version="1.1" xmlns="http://www.w3.org/2000/svg" xmlns:xlink="http://www.w3.org/1999/xlink" width="400" height="400" viewBox="0, 0, 400,400"><g id="svgg"><path id="path0" d="M247.167 46.527 C 222.808 50.793,200.368 74.154,187.368 108.779 C 186.062 112.258,186.032 112.428,186.538 113.407 L 187.064 114.424 188.832 109.731 C 203.524 70.729,228.212 47.810,255.500 47.841 C 309.722 47.903,339.327 141.800,309.306 218.500 C 301.516 238.403,288.382 257.147,275.899 266.175 C 275.132 266.730,275.017 266.987,275.250 267.618 C 275.526 268.363,275.617 268.320,278.282 266.168 C 294.964 252.699,307.861 231.201,315.975 203.333 C 316.164 202.686,316.473 202.477,317.359 202.398 C 319.400 202.216,320.032 199.404,318.693 196.456 C 318.074 195.093,318.076 195.043,318.845 191.456 C 335.645 113.121,298.281 37.575,247.167 46.527 M239.466 61.705 C 237.579 67.413,238.258 73.705,241.157 77.368 C 241.780 78.155,242.262 78.945,242.228 79.122 C 242.194 79.300,242.736 79.587,243.431 79.759 C 252.317 81.964,251.656 69.956,242.391 60.872 L 240.391 58.911 239.466 61.705 M265.167 76.620 C 262.287 78.399,261.642 81.962,263.780 84.282 C 267.809 88.655,274.680 83.912,271.908 78.671 C 270.602 76.201,267.415 75.231,265.167 76.620 M223.472 87.807 C 219.765 89.421,219.564 95.101,223.153 96.805 C 225.961 98.137,228.975 97.046,230.120 94.283 C 231.853 90.103,227.635 85.995,223.472 87.807 M300.025 97.393 C 293.202 98.590,286.000 104.095,286.000 108.113 C 286.000 108.399,285.763 108.766,285.473 108.929 C 284.839 109.284,285.406 110.929,286.919 113.119 C 287.782 114.369,287.852 114.400,289.487 114.262 C 294.362 113.847,298.464 108.882,300.836 100.521 C 301.845 96.963,301.873 97.069,300.025 97.393 M260.389 108.094 C 258.122 114.154,258.726 120.947,261.858 124.606 C 262.511 125.368,262.953 126.139,262.842 126.319 C 262.536 126.814,263.915 127.045,266.507 126.934 L 268.833 126.833 269.607 125.333 C 271.855 120.977,267.994 111.787,261.905 106.997 L 261.051 106.325 260.389 108.094 M160.747 114.694 C 150.994 139.836,151.886 160.045,163.159 169.361 C 165.020 170.899,165.952 170.994,169.697 170.032 C 180.792 167.182,199.317 153.910,203.586 145.754 C 206.955 139.317,207.356 149.383,204.016 156.559 C 203.198 158.317,201.921 160.337,199.673 163.430 C 197.454 166.484,211.196 161.048,214.698 157.487 C 216.596 155.557,217.745 155.217,217.933 156.530 C 218.317 159.222,206.909 165.573,200.667 166.142 C 195.724 166.592,194.952 165.548,197.771 162.225 C 200.937 158.493,203.116 154.266,203.814 150.502 L 204.061 149.170 202.631 150.835 C 196.840 157.580,185.209 166.025,176.438 169.855 C 175.005 170.480,173.983 170.992,174.167 170.992 C 174.350 170.992,176.825 170.770,179.667 170.500 C 192.644 169.264,203.753 169.501,208.728 171.119 C 214.856 173.111,221.535 172.623,227.368 169.756 C 235.025 165.992,239.918 164.667,246.153 164.667 C 248.269 164.667,250.000 164.581,250.000 164.477 C 250.000 164.373,249.615 162.760,249.145 160.894 C 242.541 134.685,233.593 117.454,224.173 112.806 L 221.526 111.500 216.180 111.533 C 206.147 111.594,197.878 114.245,192.425 119.147 C 191.496 119.983,190.512 120.667,190.240 120.667 C 189.295 120.667,184.667 114.673,184.667 113.448 C 184.667 111.143,182.954 116.710,182.176 121.545 L 181.954 122.924 178.463 124.462 C 174.207 126.337,174.386 126.334,171.876 124.539 C 167.843 121.655,164.253 117.185,162.845 113.295 L 162.094 111.222 160.747 114.694 M124.260 122.984 L 123.354 123.545 125.944 129.189 C 128.991 135.828,136.857 150.602,137.953 151.743 C 138.144 151.942,140.603 151.476,140.923 151.181 C 141.486 150.662,126.602 123.227,125.390 122.548 C 125.267 122.479,124.759 122.675,124.260 122.984 M239.000 123.917 C 237.537 124.648,237.497 124.395,239.852 129.251 C 242.030 133.740,242.197 133.854,244.355 132.318 C 249.212 128.859,244.356 121.241,239.000 123.917 M214.499 124.766 C 217.893 128.160,216.413 136.667,212.429 136.667 C 210.112 136.667,208.681 134.249,208.681 130.333 C 208.681 124.990,211.769 122.035,214.499 124.766 M212.676 126.809 C 212.242 127.951,212.785 129.424,213.584 129.270 C 214.035 129.183,214.167 128.821,214.167 127.667 C 214.167 125.885,213.232 125.347,212.676 126.809 M307.341 129.396 C 302.701 131.792,304.295 138.783,309.479 138.776 C 314.526 138.770,316.393 132.648,312.284 129.580 C 310.933 128.571,309.072 128.502,307.341 129.396 M279.000 141.399 C 276.652 142.047,275.325 144.008,275.256 146.931 C 275.154 151.228,278.653 153.747,282.230 151.953 C 287.962 149.079,285.096 139.715,279.000 141.399 M139.333 153.584 C 137.871 154.314,136.542 156.891,135.959 160.124 C 134.578 167.775,140.164 175.904,151.771 183.139 L 154.334 184.736 170.906 184.685 C 180.020 184.657,187.512 184.599,187.555 184.556 C 187.598 184.513,187.734 182.158,187.857 179.322 C 188.192 171.595,187.146 171.175,172.042 172.978 L 166.250 173.670 165.065 172.937 C 159.857 169.718,155.490 163.818,153.790 157.701 C 153.230 155.687,153.215 155.670,151.375 154.982 C 146.340 153.098,141.444 152.530,139.333 153.584 M250.725 157.239 C 250.160 157.346,250.008 157.538,250.166 157.943 C 250.286 158.249,250.625 159.550,250.920 160.833 L 251.458 163.167 252.212 160.833 C 253.446 157.016,253.333 156.742,250.725 157.239 M303.833 160.826 C 297.259 162.269,290.690 167.376,290.670 171.060 C 290.668 171.367,290.428 171.858,290.136 172.149 C 289.474 172.812,289.823 173.972,291.360 176.205 L 292.423 177.751 294.227 177.564 C 298.564 177.117,302.284 173.045,304.695 166.103 C 305.561 163.612,306.338 160.326,306.054 160.360 C 305.933 160.374,304.933 160.584,303.833 160.826 M240.367 166.849 C 231.255 168.826,219.616 175.133,206.917 184.977 C 205.129 186.362,203.677 187.572,203.689 187.665 C 203.734 188.003,207.966 191.333,208.351 191.333 C 209.081 191.333,217.469 187.145,222.514 184.262 C 228.955 180.581,230.581 179.777,236.552 177.319 C 245.253 173.737,245.220 173.755,246.203 172.041 C 247.477 169.819,248.941 168.358,250.747 167.506 L 252.327 166.761 250.282 166.547 C 247.064 166.211,242.696 166.344,240.367 166.849 M252.228 168.672 C 248.506 169.790,245.781 175.387,244.841 183.845 L 244.618 185.857 247.330 187.624 C 257.072 193.969,257.225 198.516,247.831 202.495 C 236.492 207.298,229.805 214.087,232.033 218.536 C 234.855 224.174,249.936 227.273,260.954 224.478 C 275.303 220.838,281.152 208.695,277.936 189.224 C 276.631 181.323,258.465 166.800,252.228 168.672 M336.047 185.333 C 331.783 186.867,328.904 190.919,330.399 193.281 C 331.641 195.242,334.459 194.184,336.498 190.989 C 337.110 190.031,339.000 185.366,339.000 184.813 C 339.000 184.500,337.755 184.719,336.047 185.333 M189.371 186.527 C 167.632 192.373,162.712 238.921,182.124 255.077 C 197.227 267.645,214.459 252.705,216.526 225.251 L 216.745 222.335 214.289 222.499 C 212.939 222.589,210.408 222.755,208.667 222.867 L 205.500 223.072 204.815 224.453 C 202.458 229.204,195.018 229.124,192.339 224.319 C 188.254 216.992,197.885 210.025,203.877 215.971 L 205.167 217.251 210.478 216.359 C 216.624 215.326,216.281 215.684,215.339 211.283 C 211.670 194.148,200.528 183.526,189.371 186.527 M143.398 197.250 L 143.500 198.833 158.477 198.833 L 173.453 198.833 174.384 197.250 L 175.314 195.667 159.305 195.667 L 143.297 195.667 143.398 197.250 M285.150 201.783 C 279.756 204.235,281.883 211.667,287.979 211.667 C 293.266 211.667,295.287 204.897,290.787 202.261 C 289.418 201.459,286.421 201.205,285.150 201.783 M342.878 205.024 C 341.040 206.471,342.202 209.667,344.567 209.667 C 346.515 209.667,347.746 207.801,346.995 205.987 C 346.266 204.228,344.435 203.800,342.878 205.024 M197.899 208.716 C 199.146 209.660,200.167 210.596,200.167 210.795 C 200.167 211.584,199.013 211.304,197.498 210.148 L 195.904 208.931 194.581 209.675 C 193.471 210.299,192.915 210.391,191.129 210.248 L 189.000 210.077 189.000 211.160 C 189.000 213.027,186.779 215.000,184.677 215.000 C 183.444 215.000,183.840 213.771,185.152 213.525 C 186.886 213.200,187.667 211.987,187.667 209.622 C 187.667 207.468,187.813 207.359,189.409 208.332 C 191.082 209.353,193.077 209.224,194.411 208.010 C 195.010 207.465,195.530 207.015,195.566 207.010 C 195.602 207.004,196.652 207.772,197.899 208.716 M137.667 210.000 L 137.667 211.667 153.434 211.667 L 169.202 211.667 169.543 210.000 L 169.885 208.333 153.776 208.333 L 137.667 208.333 137.667 210.000 M325.333 212.230 C 322.241 213.409,323.046 218.333,326.330 218.333 C 328.421 218.333,329.726 214.563,328.167 213.030 C 327.431 212.308,326.108 211.934,325.333 212.230 M222.591 216.351 C 217.440 216.959,207.414 218.502,206.231 218.870 C 205.784 219.009,205.655 219.329,205.731 220.112 L 205.833 221.167 209.500 221.060 C 213.466 220.944,222.340 220.230,227.175 219.638 L 230.183 219.270 229.853 217.468 C 229.465 215.351,230.164 215.458,222.591 216.351 M135.667 226.000 L 135.667 227.667 152.000 227.667 L 168.333 227.667 168.333 226.527 C 168.333 224.157,169.659 224.333,151.798 224.333 L 135.667 224.333 135.667 226.000 M339.623 224.855 C 335.152 226.232,331.782 230.567,333.251 233.053 C 335.107 236.194,340.422 231.363,341.514 225.543 C 341.767 224.192,341.771 224.194,339.623 224.855 M84.869 226.527 C 84.041 228.684,85.901 232.932,87.532 232.611 C 89.204 232.282,88.922 229.763,86.964 227.538 C 85.498 225.873,85.179 225.719,84.869 226.527 M239.325 231.056 C 230.953 237.341,222.280 243.001,216.872 245.708 C 212.870 247.710,212.045 248.259,211.269 249.430 C 210.094 251.206,209.826 251.213,215.072 249.332 C 235.140 242.135,254.026 232.645,258.820 227.348 L 259.462 226.638 257.981 226.902 C 256.158 227.228,248.323 227.238,246.491 226.917 C 245.168 226.686,245.069 226.743,239.325 231.056 M277.167 227.457 L 275.500 227.850 275.583 230.509 C 275.628 231.971,275.756 234.139,275.867 235.327 L 276.070 237.488 276.687 236.327 C 277.366 235.050,279.162 229.794,279.503 228.083 C 279.748 226.857,279.730 226.852,277.167 227.457 M188.094 230.457 C 188.684 230.708,189.516 231.293,189.943 231.757 C 190.661 232.536,190.787 232.564,191.610 232.135 C 193.358 231.223,195.768 231.678,197.390 233.225 C 198.233 234.029,198.322 234.045,199.048 233.537 C 200.427 232.572,203.333 233.020,203.333 234.199 C 203.333 234.610,203.056 234.666,201.893 234.492 C 200.654 234.306,200.310 234.396,199.428 235.138 C 198.125 236.234,197.798 236.221,197.190 235.045 C 196.190 233.111,193.738 232.545,191.584 233.750 C 190.270 234.485,190.236 234.487,189.872 233.855 C 189.181 232.656,187.925 231.683,186.793 231.470 C 185.986 231.319,185.667 231.081,185.667 230.630 C 185.667 229.869,186.564 229.805,188.094 230.457 M94.917 231.027 C 94.108 231.497,94.148 233.211,94.978 233.655 C 95.854 234.124,96.195 234.090,96.810 233.476 C 98.191 232.094,96.606 230.043,94.917 231.027 M79.733 237.067 C 79.078 237.722,79.249 239.265,80.022 239.679 C 80.967 240.184,82.333 239.293,82.333 238.171 C 82.333 236.934,80.602 236.198,79.733 237.067 M107.333 237.706 C 106.081 238.203,104.391 239.978,104.157 241.043 C 103.345 244.743,107.042 243.626,108.186 239.826 C 108.958 237.258,108.890 237.089,107.333 237.706 M139.333 241.000 L 139.333 242.667 155.469 242.667 L 171.605 242.667 171.072 241.000 L 170.539 239.333 154.936 239.333 L 139.333 239.333 139.333 241.000 M313.152 241.152 C 312.636 241.667,312.333 242.351,312.333 243.000 C 312.333 243.649,312.636 244.333,313.152 244.848 C 313.667 245.364,314.351 245.667,315.000 245.667 C 315.649 245.667,316.333 245.364,316.848 244.848 C 317.364 244.333,317.667 243.649,317.667 243.000 C 317.667 242.351,317.364 241.667,316.848 241.152 C 316.333 240.636,315.649 240.333,315.000 240.333 C 314.351 240.333,313.667 240.636,313.152 241.152 M94.478 243.137 C 93.820 245.757,95.091 248.753,96.938 248.937 C 99.103 249.153,98.548 245.988,95.983 243.483 L 94.704 242.235 94.478 243.137 M77.428 249.110 C 75.610 251.180,75.271 254.253,76.773 255.057 C 78.434 255.946,79.635 252.006,78.710 248.702 C 78.487 247.907,78.483 247.908,77.428 249.110 M112.583 248.693 C 111.739 249.185,111.819 250.879,112.709 251.356 C 114.361 252.240,115.811 250.192,114.476 248.857 C 113.874 248.255,113.406 248.214,112.583 248.693 M86.877 250.038 C 86.190 251.019,86.655 252.137,87.806 252.274 C 88.908 252.406,89.667 251.829,89.667 250.859 C 89.667 249.315,87.774 248.758,86.877 250.038 M329.107 250.379 C 327.501 251.194,327.345 253.889,328.847 254.873 C 331.743 256.770,335.438 253.709,333.280 251.200 C 332.396 250.173,330.319 249.764,329.107 250.379 M147.556 251.556 C 147.433 251.678,147.333 252.428,147.333 253.222 L 147.333 254.667 163.187 254.667 L 179.040 254.667 177.634 253.000 L 176.229 251.333 162.003 251.333 C 154.179 251.333,147.678 251.433,147.556 251.556 M301.159 253.897 C 301.958 259.228,305.685 263.235,308.686 261.992 C 309.663 261.587,309.805 261.251,309.669 259.667 C 309.458 257.208,306.232 254.339,301.774 252.644 L 300.922 252.320 301.159 253.897 M102.067 254.733 C 101.164 255.636,101.931 258.000,103.127 258.000 C 104.486 258.000,105.265 255.956,104.334 254.834 C 103.835 254.233,102.621 254.179,102.067 254.733 M111.304 261.107 C 108.897 262.377,107.513 265.238,108.793 266.300 C 110.016 267.315,111.954 265.302,112.684 262.260 C 113.174 260.218,113.103 260.158,111.304 261.107 M91.792 261.862 C 89.422 263.031,87.808 266.206,89.057 267.243 C 90.313 268.284,92.589 265.697,93.177 262.560 C 93.434 261.194,93.292 261.122,91.792 261.862 M71.833 262.453 C 70.849 263.955,72.360 265.496,73.856 264.516 C 74.785 263.907,74.903 262.951,74.143 262.190 C 73.389 261.436,72.428 261.546,71.833 262.453 M266.667 264.018 C 262.249 265.164,251.645 270.795,247.443 274.227 C 236.897 282.840,236.185 297.296,245.978 304.003 C 247.640 305.141,249.000 306.230,249.000 306.422 C 249.000 307.270,267.257 306.172,275.167 304.847 C 276.817 304.571,278.617 304.340,279.167 304.334 C 281.535 304.308,281.402 303.101,278.836 301.335 C 275.656 299.147,274.988 296.362,276.539 291.757 C 278.569 285.733,277.710 278.767,273.652 268.329 C 271.476 262.732,271.520 262.760,266.667 264.018 M322.833 266.800 C 318.225 268.257,314.995 272.652,316.735 275.096 C 318.518 277.601,322.500 274.495,324.332 269.171 C 325.383 266.116,325.318 266.014,322.833 266.800 M177.011 271.525 C 173.198 280.684,173.534 286.345,178.304 293.323 C 182.538 299.516,183.777 303.197,182.475 305.714 C 181.822 306.978,181.810 306.968,184.378 307.349 C 198.294 309.409,207.121 309.475,209.283 307.536 C 211.190 305.825,212.980 298.017,212.609 293.030 L 212.500 291.560 209.833 290.846 C 198.501 287.812,185.976 279.394,179.684 270.583 C 178.234 268.552,178.251 268.546,177.011 271.525 M291.667 270.757 C 288.966 272.149,290.224 276.333,293.342 276.333 C 294.606 276.333,296.113 274.483,295.864 273.237 C 295.454 271.181,293.305 269.912,291.667 270.757 M74.674 271.417 C 74.687 272.142,75.881 274.478,76.537 275.060 C 79.029 277.273,81.542 275.637,79.391 273.203 C 78.266 271.931,74.659 270.565,74.674 271.417 M97.415 272.052 C 96.457 273.010,97.160 274.667,98.526 274.667 C 100.311 274.667,100.599 271.908,98.832 271.735 C 98.281 271.681,97.643 271.823,97.415 272.052 M107.067 276.733 C 106.054 277.746,106.854 279.333,108.376 279.333 C 109.279 279.333,110.333 278.590,110.333 277.954 C 110.333 276.546,108.091 275.709,107.067 276.733 M91.000 279.784 C 91.000 281.269,92.822 283.960,94.224 284.545 C 96.358 285.437,97.391 284.010,95.943 282.170 C 95.042 281.025,91.000 279.073,91.000 279.784 M80.708 280.301 C 80.456 280.460,80.250 281.000,80.250 281.500 C 80.250 282.862,81.967 283.566,82.933 282.600 C 84.293 281.241,82.367 279.250,80.708 280.301 M308.485 284.818 C 307.969 285.334,307.667 286.017,307.667 286.667 C 307.667 287.316,307.969 287.999,308.485 288.515 C 309.001 289.031,309.684 289.333,310.333 289.333 C 310.983 289.333,311.666 289.031,312.182 288.515 C 312.698 287.999,313.000 287.316,313.000 286.667 C 313.000 286.017,312.698 285.334,312.182 284.818 C 311.666 284.302,310.983 284.000,310.333 284.000 C 309.684 284.000,309.001 284.302,308.485 284.818 M104.333 286.757 C 101.898 288.044,100.506 290.899,101.793 291.966 C 102.917 292.900,104.597 291.384,105.521 288.603 C 106.344 286.126,106.136 285.804,104.333 286.757 M86.400 291.067 C 85.410 292.057,86.331 294.000,87.790 294.000 C 88.729 294.000,89.333 293.406,89.333 292.485 C 89.333 291.081,87.347 290.120,86.400 291.067 M232.017 292.649 C 231.651 292.881,231.393 294.740,230.947 300.353 C 230.624 304.422,230.316 307.791,230.263 307.840 C 230.210 307.889,228.592 307.656,226.667 307.323 C 218.177 305.852,212.593 305.665,212.061 306.833 L 211.681 307.667 213.590 307.668 C 217.670 307.670,229.637 309.192,230.229 309.784 C 230.314 309.870,230.046 314.152,229.634 319.301 C 229.221 324.449,228.977 328.754,229.090 328.867 C 229.266 329.044,238.522 329.950,240.527 329.987 C 241.196 330.000,241.244 329.697,241.840 321.668 C 242.599 311.447,242.121 312.183,247.108 313.560 C 247.608 313.698,247.697 313.561,247.608 312.795 C 247.508 311.932,247.330 311.827,245.211 311.377 L 242.922 310.890 243.149 307.683 C 243.360 304.706,243.327 304.431,242.686 303.851 C 241.738 302.993,241.866 302.176,240.834 315.667 C 240.322 322.358,239.783 327.967,239.637 328.131 C 239.415 328.379,230.679 327.855,230.499 327.582 C 230.440 327.494,232.816 297.424,233.132 294.250 C 233.329 292.276,233.108 291.959,232.017 292.649 M97.667 298.000 C 97.300 298.367,97.000 298.817,97.000 299.000 C 97.000 300.257,98.935 300.992,99.782 300.057 C 101.235 298.451,99.197 296.470,97.667 298.000 M275.333 306.182 C 272.492 306.618,269.942 306.981,269.667 306.987 C 269.273 306.997,269.189 307.373,269.272 308.750 C 269.330 309.712,269.237 311.382,269.066 312.460 L 268.754 314.419 270.632 314.223 C 273.684 313.904,275.917 313.328,276.803 312.631 C 278.406 311.370,281.750 305.267,280.786 305.361 C 280.629 305.377,278.175 305.746,275.333 306.182 M114.000 307.014 C 104.183 307.767,95.897 309.385,95.727 310.583 C 95.598 311.490,95.510 311.488,99.381 310.691 C 113.933 307.697,134.776 307.550,150.333 310.332 C 152.442 310.709,156.342 311.403,159.000 311.875 C 167.972 313.469,175.000 313.369,175.000 311.649 C 175.000 311.526,172.487 311.343,169.417 311.241 C 164.794 311.089,162.371 310.795,155.333 309.533 C 140.935 306.950,126.390 306.064,114.000 307.014 M262.132 307.580 L 259.764 307.694 259.545 310.430 C 259.424 311.935,259.233 313.591,259.119 314.110 L 258.912 315.054 262.873 314.821 C 267.809 314.531,267.973 314.358,267.992 309.417 L 268.000 307.333 266.250 307.400 C 265.287 307.436,263.434 307.517,262.132 307.580 M178.583 310.484 C 175.465 313.847,175.409 313.788,182.031 314.113 L 184.895 314.253 185.278 313.194 C 185.489 312.612,185.755 311.448,185.870 310.609 L 186.079 309.082 183.876 308.699 C 182.665 308.488,181.484 308.257,181.253 308.186 C 181.022 308.114,179.821 309.149,178.583 310.484 M250.119 309.265 C 250.137 309.961,249.937 311.180,249.675 311.974 C 249.223 313.344,249.235 313.448,249.911 313.995 C 250.872 314.774,256.958 315.273,257.372 314.607 C 257.807 313.906,258.333 311.101,258.333 309.484 L 258.333 308.000 254.209 308.000 L 250.085 308.000 250.119 309.265 M187.073 309.577 C 187.256 310.275,186.916 312.790,186.509 313.750 C 186.282 314.287,186.583 314.333,190.314 314.333 L 194.366 314.333 195.009 312.917 C 196.199 310.294,196.089 310.149,192.583 309.701 C 190.887 309.485,188.916 309.222,188.201 309.116 C 187.033 308.944,186.920 308.990,187.073 309.577 M294.646 310.372 C 294.439 310.759,294.335 311.526,294.415 312.075 L 294.562 313.073 291.198 312.923 C 286.212 312.700,278.691 313.208,278.023 313.813 C 277.724 314.083,276.960 314.543,276.323 314.835 C 275.167 315.365,275.168 315.366,277.500 315.156 C 285.598 314.428,294.493 314.382,295.175 315.064 C 295.371 315.260,295.948 320.000,295.776 320.000 C 295.724 320.000,295.065 319.332,294.313 318.517 C 291.753 315.740,288.619 314.895,287.737 316.744 C 287.162 317.950,287.580 318.690,289.457 319.791 C 292.330 321.474,294.324 324.838,294.330 328.009 C 294.339 333.320,298.204 332.562,300.323 326.833 C 301.708 323.090,302.545 321.751,304.508 320.142 C 305.872 319.025,306.043 318.741,305.931 317.780 C 305.782 316.508,305.854 316.511,309.833 317.922 C 316.183 320.174,319.988 323.238,319.150 325.423 C 319.056 325.667,319.519 326.900,320.177 328.163 C 321.582 330.859,321.526 331.613,319.793 333.333 C 319.146 333.975,318.181 335.133,317.647 335.907 C 314.219 340.876,300.969 342.725,285.464 340.397 C 279.576 339.513,277.498 339.752,272.333 341.906 C 265.215 344.874,261.639 344.939,249.487 342.323 C 234.733 339.146,228.065 339.148,210.500 342.334 C 188.872 346.257,180.995 345.954,165.027 340.587 L 157.833 338.170 153.167 338.185 C 148.889 338.199,148.014 338.315,142.667 339.579 C 124.183 343.947,116.172 343.288,107.343 336.674 C 102.413 332.981,101.148 332.774,95.167 334.682 C 77.902 340.190,60.684 330.693,71.362 321.553 C 75.006 318.434,87.856 312.667,91.161 312.667 C 91.498 312.667,91.667 312.341,91.667 311.692 L 91.667 310.718 89.250 311.400 C 77.895 314.604,68.987 319.689,66.978 324.113 C 62.454 334.076,79.526 341.354,95.547 336.292 C 100.974 334.577,101.863 334.745,106.782 338.408 C 115.758 345.092,124.751 345.651,145.000 340.784 C 148.146 340.027,149.610 339.860,153.167 339.850 L 157.500 339.837 165.311 342.435 C 180.245 347.401,189.770 347.818,208.833 344.342 C 211.767 343.807,216.042 343.028,218.333 342.611 C 221.944 341.953,223.567 341.854,230.500 341.869 C 239.204 341.888,240.056 341.994,251.833 344.508 C 261.223 346.512,266.671 346.284,272.558 343.639 C 273.809 343.077,276.077 342.321,277.598 341.959 L 280.363 341.301 285.265 342.061 C 300.663 344.446,314.358 342.537,318.607 337.414 C 319.281 336.600,320.389 335.302,321.068 334.530 C 323.269 332.026,323.439 330.311,321.781 327.333 C 321.321 326.508,320.886 325.253,320.813 324.544 C 320.397 320.461,312.607 315.891,303.614 314.453 C 302.372 314.254,301.531 315.677,302.666 316.056 C 302.849 316.117,302.249 316.812,301.333 317.602 C 299.670 319.034,299.667 319.035,299.667 318.154 C 299.667 316.787,298.333 310.568,297.938 310.091 C 297.335 309.366,295.082 309.558,294.646 310.372 M201.490 310.249 L 197.147 310.352 196.793 311.759 C 196.597 312.533,196.325 313.425,196.187 313.740 C 195.767 314.700,200.000 314.185,202.500 312.973 C 204.563 311.972,207.220 309.969,206.333 310.082 C 206.058 310.117,203.879 310.192,201.490 310.249 M197.139 315.887 C 196.465 316.028,196.457 316.099,196.876 318.266 C 197.114 319.495,197.314 321.019,197.321 321.654 L 197.333 322.808 195.750 321.253 C 192.817 318.372,189.674 317.693,189.139 319.824 C 188.902 320.769,189.726 322.333,190.461 322.333 C 192.504 322.333,195.999 327.814,196.000 331.020 C 196.000 333.230,196.539 334.117,197.869 334.096 C 199.923 334.064,200.549 333.526,201.346 331.105 C 201.757 329.855,202.551 327.886,203.110 326.729 C 204.027 324.830,204.598 324.166,206.952 322.253 C 207.827 321.543,207.876 320.293,207.057 319.552 C 205.904 318.508,204.444 318.927,202.276 320.922 L 201.385 321.742 201.152 320.121 C 200.493 315.551,200.625 315.838,199.159 315.788 C 198.430 315.763,197.521 315.808,197.139 315.887 M130.250 318.027 C 129.543 318.438,129.518 319.419,130.134 322.500 C 130.390 323.783,130.672 325.551,130.760 326.427 L 130.921 328.022 129.191 326.386 C 127.062 324.373,125.614 323.596,124.236 323.730 C 122.219 323.927,121.913 326.299,123.777 327.294 C 127.067 329.051,129.030 332.102,129.357 335.968 C 129.603 338.870,130.125 339.500,132.000 339.157 C 133.709 338.844,134.151 338.283,135.317 334.944 C 136.601 331.267,137.409 329.957,139.628 327.955 C 141.416 326.342,141.519 325.889,140.398 324.583 C 139.461 323.492,138.022 323.928,135.917 325.940 L 134.667 327.135 134.662 325.984 C 134.656 324.336,133.449 318.707,132.980 318.143 C 132.524 317.593,131.099 317.532,130.250 318.027 M260.118 321.519 C 259.505 322.131,259.325 322.577,259.478 323.102 C 259.965 324.783,260.667 328.812,260.667 329.933 L 260.667 331.142 259.083 329.586 C 256.177 326.732,253.065 326.032,252.543 328.116 C 252.239 329.326,252.560 329.873,254.114 330.791 C 257.087 332.547,259.038 335.530,259.244 338.634 C 259.491 342.352,260.136 343.046,262.561 342.207 C 263.743 341.798,263.881 341.594,265.006 338.614 C 266.603 334.384,267.770 332.482,269.531 331.241 C 271.132 330.112,271.481 328.862,270.476 327.857 C 269.424 326.805,267.752 327.283,265.619 329.246 L 264.737 330.057 264.506 328.279 C 263.617 321.431,262.274 319.362,260.118 321.519 " stroke="none" fill="#fbfbfb" fill-rule="evenodd"></path><path id="path1" d="M249.667 48.006 C 226.270 51.258,204.884 71.694,191.419 103.667 C 186.918 114.356,186.849 114.767,189.117 117.466 L 190.208 118.765 192.245 117.123 C 193.366 116.220,195.405 114.889,196.776 114.164 L 199.269 112.846 198.634 111.603 C 197.858 110.082,197.837 109.088,198.541 107.327 C 199.915 103.895,204.332 104.249,208.583 108.133 L 210.444 109.833 215.972 109.834 C 220.373 109.834,221.803 109.950,222.986 110.402 L 224.472 110.970 226.390 109.140 C 232.294 103.509,240.447 103.737,241.227 109.555 C 241.589 112.250,239.548 114.594,234.970 116.743 L 232.773 117.774 234.587 120.303 C 235.585 121.694,236.619 123.252,236.885 123.766 L 237.368 124.700 238.434 124.059 C 243.961 120.739,249.397 127.854,244.626 132.164 C 243.914 132.807,243.032 133.333,242.666 133.333 C 241.802 133.333,241.730 133.018,243.793 138.270 C 245.785 143.341,247.084 147.202,248.804 153.167 C 249.438 155.367,250.079 157.145,250.229 157.119 C 250.378 157.093,251.157 156.964,251.961 156.832 L 253.421 156.593 253.185 157.880 C 253.055 158.588,252.616 160.168,252.208 161.392 C 251.336 164.012,251.521 164.921,252.987 165.214 C 253.539 165.324,254.375 165.771,254.846 166.207 C 255.316 166.643,255.913 167.000,256.171 167.000 C 260.545 167.000,276.406 180.419,278.859 186.193 C 282.191 194.040,280.208 210.872,275.174 217.468 L 273.967 219.049 274.567 223.380 L 275.167 227.712 276.000 227.525 C 276.458 227.422,277.540 227.241,278.405 227.124 L 279.976 226.910 279.156 229.974 C 278.705 231.659,277.822 234.150,277.194 235.509 C 276.145 237.780,276.035 238.328,275.837 242.240 C 275.527 248.394,274.811 253.690,273.690 258.129 L 272.709 262.015 273.742 264.257 C 274.310 265.491,274.821 266.558,274.878 266.629 C 275.297 267.156,284.209 258.909,287.985 254.500 C 326.196 209.877,332.356 125.024,300.915 76.389 C 287.805 56.108,268.459 45.395,249.667 48.006 M242.385 60.583 C 249.237 67.689,251.751 75.170,248.623 79.146 C 247.635 80.402,242.000 80.370,242.000 79.108 C 242.000 78.844,241.557 78.074,241.015 77.397 C 237.704 73.260,237.237 66.333,239.847 60.083 C 240.434 58.677,240.574 58.705,242.385 60.583 M269.677 76.417 C 275.609 79.414,271.656 88.424,265.587 85.739 C 261.418 83.895,261.346 78.173,265.467 76.302 C 267.246 75.494,267.885 75.512,269.677 76.417 M228.367 88.090 C 232.594 90.914,230.587 97.500,225.500 97.500 C 220.271 97.500,218.406 90.393,222.995 87.951 C 224.624 87.084,226.952 87.144,228.367 88.090 M301.667 97.562 C 301.667 98.883,300.170 103.401,298.764 106.325 C 295.618 112.868,289.691 116.605,287.184 113.627 C 285.676 111.834,284.229 108.465,285.092 108.753 C 285.310 108.825,285.807 108.085,286.216 107.080 C 288.117 102.401,292.121 99.233,298.121 97.660 C 301.121 96.874,301.667 96.859,301.667 97.562 M265.761 111.000 C 270.416 116.786,271.798 122.960,269.226 126.475 C 268.383 127.628,262.329 127.529,262.588 126.368 C 262.636 126.150,262.154 125.289,261.516 124.454 C 258.186 120.091,257.907 114.092,260.694 106.761 L 261.025 105.890 262.388 107.195 C 263.137 107.913,264.655 109.625,265.761 111.000 M312.573 129.600 C 315.001 131.329,315.363 135.073,313.307 137.194 C 308.607 142.043,301.297 135.528,305.748 130.458 C 307.503 128.460,310.451 128.089,312.573 129.600 M283.296 141.973 C 286.234 144.066,286.209 149.488,283.251 151.675 C 280.004 154.075,275.479 151.867,275.077 147.685 C 274.588 142.593,279.435 139.224,283.296 141.973 M322.994 155.730 C 322.915 165.214,321.282 180.039,319.130 190.811 C 318.321 194.857,318.301 195.191,318.798 196.232 C 320.262 199.304,319.746 202.149,317.661 202.501 L 316.357 202.721 315.478 205.611 C 307.441 232.032,294.547 253.173,278.583 266.103 C 275.387 268.691,275.471 268.554,276.128 270.125 C 277.632 273.725,279.333 281.604,279.333 284.970 C 279.333 288.467,287.057 294.588,294.333 296.858 C 295.342 297.172,296.282 297.531,296.422 297.654 C 296.651 297.854,296.331 303.245,295.813 307.915 C 295.646 309.418,295.693 309.636,296.145 309.462 C 297.697 308.867,298.700 310.738,299.471 315.667 C 299.686 317.042,299.934 318.167,300.023 318.167 C 300.464 318.167,302.988 316.052,302.674 315.947 C 302.413 315.860,302.402 314.968,302.635 312.829 C 302.814 311.181,303.144 307.261,303.367 304.116 L 303.773 298.400 305.970 298.182 C 336.464 295.160,358.803 246.751,350.969 200.667 C 347.450 179.965,337.340 162.625,324.917 155.985 L 323.000 154.961 322.994 155.730 M306.187 161.509 C 304.416 170.949,297.224 179.620,292.641 177.839 C 291.348 177.337,288.776 172.000,289.827 172.000 C 290.105 172.000,290.335 171.813,290.337 171.583 C 290.362 168.275,295.659 163.257,300.936 161.542 C 305.889 159.932,306.483 159.929,306.187 161.509 M187.250 171.572 C 186.058 171.753,186.087 172.360,187.333 173.281 L 188.333 174.020 188.333 172.677 C 188.333 171.938,188.296 171.356,188.250 171.383 C 188.204 171.411,187.754 171.496,187.250 171.572 M339.000 184.844 C 339.000 188.312,335.181 193.775,332.279 194.456 C 331.436 194.654,329.667 193.228,329.667 192.350 C 329.667 189.605,332.909 186.157,336.600 184.977 C 338.960 184.222,339.000 184.220,339.000 184.844 M290.658 201.996 C 293.703 203.549,294.465 207.460,292.209 209.948 C 289.941 212.449,284.845 212.257,282.953 209.600 C 279.489 204.736,285.125 199.173,290.658 201.996 M346.583 205.212 C 348.224 207.016,346.964 209.800,344.507 209.800 C 341.531 209.800,340.682 205.681,343.414 204.501 C 344.734 203.930,345.593 204.123,346.583 205.212 M194.450 208.180 C 193.371 209.351,191.653 209.548,189.906 208.702 C 187.832 207.698,187.621 207.763,187.871 209.330 C 188.239 211.627,187.168 213.232,184.893 213.793 C 183.664 214.096,183.918 214.870,185.196 214.717 C 187.338 214.461,189.000 212.623,189.000 210.510 C 189.000 209.730,189.092 209.655,189.750 209.894 C 191.233 210.433,193.563 210.202,194.634 209.410 L 195.652 208.657 197.283 209.829 C 198.844 210.951,200.000 211.326,200.000 210.711 C 200.000 210.338,195.940 207.322,195.500 207.369 C 195.317 207.388,194.844 207.753,194.450 208.180 M328.065 212.896 C 330.269 215.007,328.399 218.969,325.464 218.408 C 323.288 217.992,322.586 214.696,324.308 212.974 C 325.552 211.730,326.821 211.704,328.065 212.896 M87.333 220.462 C 57.611 229.230,59.371 299.287,89.483 306.025 L 91.333 306.439 91.333 308.007 C 91.333 308.868,91.426 310.250,91.539 311.076 L 91.745 312.578 89.289 313.301 C 82.862 315.192,77.223 317.663,73.208 320.348 C 59.215 329.708,76.861 340.505,95.961 334.270 C 101.192 332.562,102.491 332.888,108.748 337.479 C 113.863 341.231,117.665 342.170,126.667 341.904 C 132.655 341.727,133.367 341.614,143.833 339.183 C 152.993 337.056,155.327 337.197,165.108 340.472 C 180.805 345.728,189.234 346.036,210.667 342.134 C 228.699 338.852,234.643 338.888,250.470 342.372 C 260.710 344.626,265.932 344.522,271.785 341.945 C 277.219 339.553,279.707 339.294,286.833 340.383 C 302.467 342.772,315.993 340.316,318.335 334.663 C 318.562 334.115,318.859 333.667,318.995 333.667 C 320.883 333.667,321.405 330.571,319.950 328.000 C 319.380 326.992,318.935 325.752,318.962 325.244 C 319.104 322.587,315.897 320.147,309.277 317.877 C 306.494 316.922,305.845 316.812,306.178 317.352 C 306.610 318.051,305.978 319.293,304.829 320.003 C 303.158 321.035,301.749 323.266,300.435 326.959 C 299.178 330.491,298.998 330.747,297.404 331.277 C 295.190 332.012,294.524 331.250,294.216 327.629 C 293.966 324.679,290.687 319.667,289.007 319.667 C 288.372 319.667,287.333 318.337,287.333 317.524 C 287.333 314.706,290.975 315.082,294.219 318.234 L 295.737 319.710 295.502 317.605 C 295.372 316.447,295.146 315.372,294.999 315.217 C 294.427 314.608,285.263 314.573,279.667 315.159 C 276.642 315.475,273.417 315.805,272.500 315.892 C 260.940 316.985,248.975 316.322,248.019 314.535 C 247.684 313.909,243.174 312.401,242.783 312.784 C 242.756 312.811,242.422 316.629,242.042 321.268 C 241.661 325.908,241.284 329.810,241.203 329.941 C 241.028 330.224,229.274 329.365,228.928 329.044 C 228.797 328.922,229.033 324.625,229.453 319.495 C 229.874 314.364,230.131 310.067,230.025 309.945 C 229.572 309.420,221.088 308.267,216.406 308.093 L 211.311 307.904 209.876 309.402 C 207.062 312.339,202.648 315.333,201.134 315.333 C 200.677 315.333,200.617 315.554,200.793 316.583 C 200.910 317.271,201.101 318.695,201.217 319.749 L 201.428 321.664 202.861 320.343 C 205.074 318.304,206.935 318.242,207.673 320.184 C 208.086 321.269,207.862 321.732,206.326 322.966 C 204.294 324.599,203.382 326.029,202.121 329.560 C 200.748 333.402,200.386 333.876,198.599 334.178 C 196.661 334.506,196.053 333.784,195.839 330.905 C 195.566 327.231,193.562 324.081,190.481 322.486 C 188.287 321.350,188.642 318.328,190.968 318.336 C 192.192 318.341,195.069 320.077,196.327 321.570 L 197.392 322.833 197.185 321.333 C 197.071 320.508,196.823 318.933,196.634 317.833 L 196.290 315.833 193.395 315.939 C 183.106 316.312,174.667 315.313,174.667 313.721 C 174.667 313.197,174.420 313.142,172.654 313.270 C 169.583 313.492,162.934 312.760,155.000 311.325 C 133.782 307.490,109.501 307.573,96.285 311.525 C 95.809 311.668,95.734 311.338,95.719 309.035 L 95.702 306.381 97.434 306.010 C 113.150 302.649,123.211 276.050,118.175 251.177 C 113.931 230.215,100.297 216.637,87.333 220.462 M341.860 225.180 C 340.216 231.729,335.455 236.312,333.356 233.365 C 331.668 230.994,334.233 226.926,338.530 225.159 C 341.218 224.054,342.141 224.060,341.860 225.180 M88.530 229.864 C 89.527 232.476,87.748 233.665,85.834 231.667 C 84.850 230.640,84.270 227.513,84.806 226.118 C 85.120 225.300,87.826 228.021,88.530 229.864 M185.883 230.228 C 185.420 230.691,185.719 230.988,186.993 231.331 C 187.888 231.572,188.664 232.117,189.378 233.006 L 190.437 234.324 191.508 233.662 C 193.455 232.459,195.215 232.744,196.881 234.533 L 198.309 236.066 199.082 235.166 C 199.825 234.303,201.093 234.027,202.667 234.386 C 202.942 234.449,203.167 234.275,203.167 234.000 C 203.167 233.260,199.867 233.125,198.803 233.823 C 198.361 234.112,198.000 234.201,198.000 234.020 C 198.000 232.587,193.100 231.388,191.263 232.371 C 190.712 232.666,190.510 232.637,190.282 232.230 C 189.696 231.183,186.419 229.692,185.883 230.228 M97.197 231.500 C 98.295 233.175,96.118 234.813,94.610 233.448 C 93.853 232.764,93.835 232.069,94.552 231.276 C 95.338 230.407,96.548 230.509,97.197 231.500 M82.197 237.500 C 82.703 238.272,82.703 238.395,82.197 239.167 C 80.936 241.092,78.255 239.349,79.345 237.311 C 79.861 236.347,81.513 236.456,82.197 237.500 M108.771 238.084 C 107.799 242.453,105.716 244.712,104.202 243.039 C 103.062 241.780,104.577 238.942,107.040 237.724 C 108.635 236.934,109.009 237.012,108.771 238.084 M316.120 240.459 C 319.138 241.720,317.691 246.604,314.534 245.812 C 311.370 245.018,311.659 240.755,314.927 240.021 C 314.979 240.010,315.516 240.207,316.120 240.459 M96.225 243.750 C 98.598 246.215,99.186 248.773,97.478 249.202 C 95.649 249.661,93.762 246.394,94.221 243.562 C 94.472 242.017,94.565 242.026,96.225 243.750 M78.982 249.250 C 79.905 252.571,78.784 255.686,76.841 255.198 C 75.240 254.797,75.331 251.691,77.010 249.373 C 78.236 247.680,78.541 247.661,78.982 249.250 M114.864 249.167 C 115.961 250.841,113.785 252.480,112.276 251.115 C 111.531 250.441,111.513 250.034,112.186 249.074 C 112.888 248.071,114.175 248.116,114.864 249.167 M89.178 249.814 C 90.173 250.809,89.895 251.999,88.557 252.477 C 86.770 253.116,85.515 250.611,87.074 249.519 C 88.053 248.833,88.220 248.857,89.178 249.814 M333.182 250.818 C 334.557 252.194,334.199 254.341,332.439 255.279 C 329.429 256.882,326.116 253.193,328.391 250.771 C 329.445 249.650,332.039 249.676,333.182 250.818 M303.428 253.203 C 309.189 256.086,311.784 260.547,308.604 262.101 C 305.727 263.507,301.610 259.144,301.093 254.142 C 300.874 252.019,300.977 251.977,303.428 253.203 M104.333 254.667 C 105.144 255.477,105.190 256.571,104.448 257.390 C 103.182 258.789,101.045 257.431,101.522 255.531 C 101.906 254.001,103.253 253.587,104.333 254.667 M113.143 261.250 C 112.194 265.538,109.553 268.113,108.371 265.904 C 107.622 264.505,109.286 261.794,111.500 260.806 C 113.048 260.115,113.375 260.203,113.143 261.250 M93.437 262.083 C 92.458 266.485,90.383 268.713,88.845 267.013 C 87.762 265.817,89.169 262.990,91.393 261.894 C 92.993 261.105,93.642 261.165,93.437 262.083 M74.317 262.147 C 75.008 262.980,74.609 264.450,73.593 264.805 C 72.005 265.360,70.563 263.237,71.733 262.067 C 72.284 261.516,73.833 261.564,74.317 262.147 M325.153 267.083 C 323.860 273.091,318.864 278.075,316.764 275.451 C 314.626 272.779,317.748 268.300,322.893 266.656 C 325.451 265.839,325.422 265.833,325.153 267.083 M295.019 271.408 C 297.782 274.433,293.870 278.255,290.974 275.359 C 289.684 274.068,289.646 272.445,290.879 271.212 C 292.156 269.935,293.743 270.010,295.019 271.408 M76.920 271.489 C 79.755 272.809,81.090 274.777,79.933 275.933 C 78.498 277.369,75.291 274.784,74.537 271.583 C 74.265 270.432,74.618 270.418,76.920 271.489 M99.821 271.987 C 101.118 273.420,99.413 275.565,97.811 274.516 C 97.365 274.224,96.982 273.801,96.961 273.576 C 96.771 271.613,98.576 270.610,99.821 271.987 M109.689 276.345 C 110.600 276.833,110.543 278.482,109.592 279.148 C 108.577 279.859,108.105 279.802,107.155 278.852 C 105.545 277.242,107.588 275.221,109.689 276.345 M94.167 280.620 C 97.168 282.204,97.773 285.000,95.115 285.000 C 93.522 285.000,91.000 281.928,91.000 279.988 C 91.000 279.150,91.611 279.272,94.167 280.620 M82.958 280.523 C 84.222 282.130,82.528 283.974,80.817 282.853 C 79.782 282.175,79.745 280.883,80.741 280.186 C 81.765 279.468,82.179 279.531,82.958 280.523 M311.466 284.131 C 314.188 285.268,313.279 289.444,310.309 289.444 C 306.815 289.444,306.773 284.471,310.261 283.688 C 310.312 283.676,310.855 283.876,311.466 284.131 M106.143 286.917 C 105.206 291.150,103.048 293.377,101.519 291.688 C 101.026 291.143,100.993 290.864,101.307 289.914 C 102.143 287.379,106.660 284.580,106.143 286.917 M89.177 291.449 C 90.554 293.415,88.195 295.225,86.485 293.515 C 85.466 292.497,85.463 292.173,86.463 291.173 C 87.383 290.253,88.413 290.358,89.177 291.449 M234.750 292.055 C 233.612 292.310,233.333 292.516,233.332 293.103 C 233.331 293.505,232.732 301.258,232.000 310.333 C 231.268 319.408,230.669 326.999,230.668 327.202 C 230.667 327.499,239.230 328.440,239.577 328.181 C 239.620 328.149,240.112 322.492,240.671 315.610 L 241.687 303.097 240.549 301.406 C 239.180 299.371,238.053 296.195,237.776 293.583 C 237.549 291.450,237.520 291.435,234.750 292.055 M99.933 297.733 C 101.004 298.804,100.164 300.667,98.612 300.667 C 97.689 300.667,97.000 299.902,97.000 298.879 C 97.000 297.636,99.039 296.839,99.933 297.733 M132.570 317.600 C 133.238 318.024,133.910 320.010,134.340 322.833 C 134.919 326.634,134.848 326.521,136.041 325.517 C 137.754 324.075,138.852 323.627,139.794 323.985 C 141.708 324.713,141.726 326.830,139.829 328.003 C 138.158 329.035,136.749 331.266,135.435 334.959 C 134.090 338.738,133.857 339.023,131.950 339.238 C 129.986 339.459,129.468 338.825,129.249 335.938 C 128.970 332.259,127.046 329.221,124.015 327.675 C 121.963 326.627,121.755 324.458,123.633 323.680 C 124.945 323.137,127.002 324.041,129.160 326.109 L 130.748 327.630 130.534 325.898 C 130.416 324.946,130.072 322.982,129.768 321.534 L 129.215 318.900 130.126 318.117 C 131.059 317.314,131.856 317.146,132.570 317.600 M262.749 321.083 C 263.402 321.584,264.286 324.892,264.564 327.873 L 264.767 330.038 265.967 328.892 C 268.159 326.798,269.240 326.543,270.515 327.818 C 271.704 329.007,271.548 329.544,269.463 331.454 C 267.467 333.282,266.233 335.396,265.032 339.045 C 263.415 343.961,259.653 344.113,259.226 339.279 C 258.899 335.568,256.934 332.340,254.197 331.015 C 252.240 330.067,251.714 328.570,252.885 327.276 C 254.035 326.006,257.395 327.297,259.664 329.881 L 260.775 331.147 260.555 329.657 C 260.434 328.837,260.079 326.761,259.766 325.042 L 259.196 321.918 259.968 321.292 C 260.861 320.569,261.970 320.486,262.749 321.083 " stroke="none" fill="#449444" fill-rule="evenodd"></path><path id="path2" d="M150.216 62.417 C 149.943 63.379,148.714 67.767,147.485 72.167 C 144.865 81.550,145.361 80.632,143.434 79.670 C 137.858 76.885,131.987 80.480,132.009 86.667 C 132.033 93.312,140.989 96.720,144.379 91.374 C 145.998 88.821,146.396 87.494,151.706 66.906 L 152.031 65.645 154.766 67.997 C 157.690 70.512,158.775 71.036,159.513 70.293 C 159.901 69.903,159.466 69.252,156.645 66.000 C 151.337 59.880,150.992 59.688,150.216 62.417 M61.000 110.618 L 61.000 120.902 59.261 120.451 C 49.303 117.868,44.453 132.000,54.286 134.946 C 61.791 137.195,63.630 133.226,63.657 114.728 C 63.666 108.438,63.708 107.967,64.250 108.124 C 64.571 108.217,67.571 108.704,70.917 109.206 L 77.000 110.118 77.000 116.419 L 77.000 122.720 75.927 122.484 C 73.523 121.956,70.792 122.179,69.119 123.040 C 62.296 126.551,65.172 137.333,72.932 137.333 C 78.755 137.333,79.633 134.873,79.895 117.833 L 80.080 105.833 79.123 104.962 C 78.526 104.419,77.290 103.876,75.833 103.518 C 69.590 101.983,62.247 100.333,61.658 100.333 C 61.017 100.333,61.000 100.601,61.000 110.618 M70.500 105.170 C 76.200 106.167,77.597 106.669,74.650 106.662 C 72.144 106.656,67.055 105.560,65.475 104.685 C 64.756 104.287,64.392 104.023,64.667 104.099 C 64.942 104.175,67.567 104.657,70.500 105.170 M184.500 104.725 C 184.196 105.542,182.998 110.132,181.819 115.000 C 181.175 117.658,180.539 120.255,180.407 120.771 C 180.206 121.553,179.700 121.915,177.333 122.969 L 174.500 124.230 172.623 122.792 C 167.804 119.103,164.214 113.664,163.738 109.333 C 163.194 104.380,161.015 107.638,157.164 119.167 C 153.532 130.036,152.527 135.741,152.512 145.583 C 152.505 149.846,152.425 153.331,152.333 153.329 C 152.242 153.327,150.985 152.947,149.540 152.486 C 148.096 152.025,146.071 151.556,145.040 151.444 L 143.167 151.240 139.606 144.037 C 136.149 137.043,131.881 129.304,128.458 123.818 L 126.784 121.136 127.475 119.818 C 130.628 113.808,124.083 107.115,117.830 109.955 C 111.233 112.952,113.136 123.646,120.272 123.671 C 121.495 123.675,121.505 123.687,122.640 126.421 C 124.232 130.255,131.053 143.636,134.066 148.833 L 136.577 153.167 135.786 154.744 C 131.016 164.255,135.673 174.639,148.566 183.243 L 152.631 185.956 150.738 187.025 C 132.090 197.549,129.676 238.719,146.730 255.372 C 151.748 260.272,154.408 261.012,166.092 260.758 L 174.904 260.566 175.623 262.866 C 176.018 264.131,176.550 265.537,176.805 265.990 C 177.226 266.738,177.175 266.999,176.253 268.823 C 171.350 278.523,171.486 286.439,176.689 294.234 C 182.326 302.679,182.417 303.723,177.936 308.501 C 172.222 314.593,172.843 315.305,184.280 315.768 C 199.112 316.369,202.673 315.721,207.614 311.525 C 212.680 307.223,213.481 305.238,214.500 294.467 L 214.724 292.101 216.445 292.443 C 218.908 292.931,230.036 292.916,232.833 292.419 C 238.216 291.465,237.667 291.431,237.667 292.720 C 237.667 297.753,240.543 302.521,245.689 306.015 C 247.991 307.579,248.460 308.308,248.219 309.954 C 247.570 314.375,247.557 314.132,248.511 315.087 C 250.808 317.384,272.837 316.608,277.379 314.071 C 282.896 310.988,284.529 303.149,280.289 300.103 C 277.526 298.118,276.803 296.249,277.838 293.770 C 280.725 286.862,278.757 273.767,273.233 263.124 C 272.718 262.132,272.739 261.893,273.682 258.163 C 276.172 248.302,276.436 236.134,274.454 222.629 L 273.935 219.091 275.158 217.489 C 280.209 210.872,282.197 194.054,278.859 186.193 C 276.406 180.419,260.545 167.000,256.171 167.000 C 255.913 167.000,255.316 166.643,254.846 166.207 C 254.375 165.771,253.540 165.325,252.990 165.215 C 251.770 164.971,251.640 164.662,250.160 158.485 C 246.766 144.328,240.109 127.936,234.720 120.470 L 232.774 117.774 234.970 116.743 C 239.548 114.594,241.589 112.250,241.227 109.555 C 240.447 103.737,232.294 103.509,226.390 109.140 L 224.472 110.970 222.986 110.402 C 221.803 109.950,220.373 109.834,215.972 109.834 L 210.444 109.833 208.583 108.133 C 204.332 104.249,199.915 103.895,198.541 107.327 C 197.837 109.088,197.858 110.082,198.634 111.603 L 199.269 112.846 196.776 114.164 C 195.405 114.889,193.366 116.220,192.245 117.123 L 190.208 118.765 189.141 117.494 C 186.256 114.058,185.833 112.910,185.833 108.517 C 185.833 104.963,185.767 104.497,185.249 104.397 C 184.928 104.335,184.591 104.483,184.500 104.725 M162.974 113.087 C 164.272 116.988,169.789 123.557,173.350 125.442 L 174.500 126.050 178.130 124.430 L 181.760 122.810 182.537 118.989 C 182.965 116.887,183.510 114.502,183.748 113.690 L 184.183 112.213 185.242 114.366 C 186.839 117.609,191.000 121.932,191.000 120.348 C 191.000 119.682,195.293 116.589,198.191 115.166 C 203.377 112.621,209.696 111.295,217.025 111.213 L 221.216 111.167 224.071 112.581 C 233.610 117.308,242.863 134.916,249.164 160.333 C 249.641 162.258,250.117 164.119,250.221 164.467 C 250.401 165.069,250.257 165.090,247.443 164.877 C 241.656 164.441,234.936 166.158,227.026 170.097 L 222.872 172.164 217.019 172.166 C 211.375 172.167,211.066 172.131,208.333 171.171 L 205.500 170.175 195.000 170.171 C 185.832 170.167,178.554 170.530,174.333 171.200 C 172.678 171.463,173.347 171.004,176.833 169.484 C 185.158 165.855,197.486 156.765,202.966 150.215 C 204.303 148.617,204.346 148.673,203.799 151.299 C 203.171 154.318,201.024 158.432,198.320 161.803 C 195.132 165.777,195.343 166.214,200.308 165.912 C 206.602 165.528,218.459 159.131,217.934 156.402 C 217.725 155.317,216.804 155.667,214.828 157.581 C 211.783 160.532,205.062 163.713,200.816 164.212 C 198.625 164.469,198.621 164.442,200.473 162.035 C 204.062 157.371,205.641 153.221,205.909 147.750 C 206.141 143.023,205.476 142.543,203.604 146.083 C 198.829 155.115,177.232 169.544,166.581 170.819 L 164.661 171.049 161.730 168.108 C 151.075 157.415,151.062 138.799,161.689 111.750 C 162.112 110.674,162.202 110.768,162.974 113.087 M127.640 125.728 C 131.600 132.074,140.625 149.030,141.064 150.951 C 141.130 151.241,140.600 151.550,139.570 151.819 L 137.973 152.237 136.697 150.035 C 131.288 140.701,123.333 124.937,123.333 123.552 C 123.333 123.175,124.453 122.461,125.177 122.374 C 125.366 122.352,126.474 123.861,127.640 125.728 M210.914 124.361 C 209.132 125.399,208.206 129.913,209.127 133.078 C 210.844 138.987,216.053 137.069,216.126 130.500 C 216.180 125.674,213.692 122.744,210.914 124.361 M214.539 126.870 C 214.804 127.927,214.459 129.214,213.846 129.449 C 213.136 129.722,212.333 128.776,212.333 127.667 C 212.333 125.798,214.109 125.156,214.539 126.870 M146.500 153.372 C 147.233 153.552,149.052 154.088,150.541 154.562 L 153.249 155.423 154.305 158.628 C 156.144 164.205,159.371 168.661,163.924 171.910 L 166.061 173.435 169.781 173.029 C 181.504 171.749,183.619 171.625,184.644 172.155 C 185.460 172.577,185.698 172.587,186.068 172.218 C 186.312 171.974,186.944 171.691,187.471 171.591 L 188.431 171.407 188.207 176.620 C 188.084 179.487,187.891 182.557,187.779 183.442 L 187.574 185.050 171.870 184.981 C 163.233 184.943,155.934 185.011,155.650 185.133 C 155.072 185.380,150.660 182.830,147.144 180.219 C 136.646 172.420,133.157 163.520,137.365 155.271 C 138.604 152.842,141.712 152.196,146.500 153.372 M250.955 166.512 C 252.864 166.669,252.974 166.847,251.467 167.344 C 249.832 167.884,247.575 169.996,246.356 172.127 C 245.753 173.181,245.017 173.981,244.439 174.211 C 233.912 178.403,229.128 180.626,222.868 184.233 C 218.107 186.976,212.199 190.002,209.609 191.023 L 207.924 191.687 206.379 190.248 C 205.529 189.457,204.465 188.554,204.015 188.242 C 203.285 187.736,203.253 187.628,203.722 187.254 C 215.917 177.518,227.674 170.485,236.389 167.712 C 241.499 166.086,243.633 165.910,250.955 166.512 M259.367 169.749 C 264.763 172.446,276.189 183.279,277.627 187.062 C 279.084 190.895,279.315 202.859,278.027 207.833 C 274.570 221.191,262.050 227.862,245.481 225.174 C 225.638 221.956,227.303 210.625,248.913 201.828 C 257.050 198.516,256.302 193.492,246.768 187.431 C 244.645 186.081,244.385 185.806,244.512 185.036 C 244.591 184.558,244.824 182.970,245.029 181.507 C 246.640 170.023,251.667 165.900,259.367 169.749 M107.250 181.563 C 106.521 181.754,106.321 180.456,108.833 191.871 C 110.025 197.287,111.000 201.761,111.000 201.813 C 111.000 201.866,110.058 201.984,108.907 202.077 C 103.972 202.473,101.015 205.821,101.408 210.566 C 102.077 218.631,114.342 220.004,115.521 212.146 C 115.829 210.091,115.042 205.780,112.375 194.917 C 111.127 189.829,110.158 185.667,110.223 185.667 C 110.287 185.667,111.720 185.974,113.405 186.349 C 117.122 187.177,118.833 187.124,118.833 186.182 C 118.833 185.670,107.891 180.884,107.838 181.372 C 107.835 181.393,107.571 181.479,107.250 181.563 M197.167 186.398 C 205.924 188.568,214.056 200.496,216.119 214.197 L 216.324 215.562 210.612 216.499 L 204.900 217.437 204.269 216.570 C 201.298 212.492,194.388 213.207,192.298 217.810 C 189.458 224.062,195.904 230.081,202.088 226.950 C 203.343 226.315,205.333 223.964,205.333 223.117 C 205.333 222.786,205.895 222.667,207.448 222.667 C 208.611 222.667,211.161 222.569,213.115 222.449 L 216.667 222.232 216.667 224.657 C 216.667 237.414,210.280 251.668,202.272 256.782 C 179.974 271.024,160.085 230.254,174.650 200.162 C 179.782 189.558,188.476 184.244,197.167 186.398 M175.333 195.625 C 175.333 195.785,174.946 196.610,174.472 197.458 L 173.610 199.000 158.472 199.000 L 143.333 199.000 143.333 197.167 L 143.333 195.333 159.333 195.333 C 168.241 195.333,175.333 195.462,175.333 195.625 M169.835 209.417 C 169.334 211.905,171.083 211.667,153.311 211.667 L 137.333 211.667 137.333 210.000 L 137.333 208.333 153.693 208.333 L 170.053 208.333 169.835 209.417 M230.087 217.250 C 230.181 218.304,230.162 219.261,230.045 219.377 C 229.730 219.690,216.234 220.966,210.583 221.218 L 205.667 221.437 205.667 220.385 C 205.667 219.807,205.658 219.221,205.647 219.083 C 205.605 218.555,215.745 216.894,225.333 215.858 C 227.625 215.610,229.594 215.391,229.709 215.370 C 229.824 215.350,229.994 216.196,230.087 217.250 M168.267 225.917 L 168.368 227.667 152.017 227.667 L 135.667 227.667 135.667 225.830 L 135.667 223.994 151.917 224.080 L 168.167 224.167 168.267 225.917 M258.333 228.057 C 251.421 234.154,232.142 243.625,213.401 250.130 L 209.969 251.322 210.830 249.911 C 211.303 249.135,211.797 248.347,211.928 248.160 C 212.059 247.972,213.923 246.968,216.070 245.929 C 222.364 242.881,230.603 237.484,240.780 229.744 L 244.726 226.743 250.280 226.899 C 253.334 226.985,256.658 226.921,257.667 226.756 C 260.059 226.365,260.119 226.482,258.333 228.057 M171.006 240.181 C 171.183 240.648,171.420 241.398,171.533 241.848 L 171.739 242.667 155.369 242.667 L 139.000 242.667 139.000 241.000 L 139.000 239.333 154.842 239.333 L 170.683 239.333 171.006 240.181 M177.917 252.979 C 178.696 253.883,179.333 254.708,179.333 254.812 C 179.333 254.915,172.133 255.000,163.333 255.000 L 147.333 255.000 147.333 253.167 L 147.333 251.333 161.917 251.333 L 176.500 251.334 177.917 252.979 M272.656 265.423 C 277.705 276.559,279.004 285.912,276.438 292.667 C 275.070 296.269,275.953 299.190,279.025 301.223 C 280.157 301.972,281.645 303.895,281.275 304.131 C 280.311 304.744,263.326 306.519,255.070 306.869 L 249.640 307.100 248.737 306.262 C 248.240 305.801,246.660 304.642,245.226 303.686 C 237.307 298.406,236.776 286.041,244.096 277.389 C 249.202 271.355,263.733 263.468,269.938 263.363 L 271.708 263.333 272.656 265.423 M180.183 270.917 C 186.480 279.530,198.083 287.314,209.500 290.584 C 212.754 291.516,212.836 291.563,212.936 292.583 C 213.101 294.255,211.744 303.902,211.176 305.100 C 210.395 306.746,208.727 308.628,208.077 308.597 C 207.759 308.582,206.610 308.741,205.522 308.951 C 202.718 309.493,199.842 309.428,193.785 308.686 C 190.878 308.330,187.087 307.873,185.361 307.671 C 181.544 307.224,181.536 307.220,182.216 305.906 C 183.584 303.258,182.488 299.805,178.328 293.667 C 173.374 286.356,172.997 280.756,176.844 271.583 C 178.309 268.089,178.141 268.123,180.183 270.917 M281.157 306.083 C 280.782 307.354,278.391 311.225,277.317 312.299 C 276.208 313.407,275.072 313.801,271.500 314.317 C 268.193 314.794,268.333 314.830,268.690 313.586 C 268.860 312.991,269.000 311.269,269.000 309.759 C 269.000 307.179,269.045 307.003,269.750 306.859 C 276.822 305.409,281.449 305.095,281.157 306.083 M268.000 310.130 C 268.000 314.698,267.885 314.801,262.650 314.946 C 258.799 315.052,258.588 315.024,258.835 314.446 C 258.979 314.109,259.167 312.458,259.253 310.777 L 259.411 307.720 262.289 307.510 C 263.872 307.394,265.467 307.252,265.833 307.195 C 268.102 306.841,268.000 306.702,268.000 310.130 M258.333 310.045 C 258.333 311.353,258.155 313.018,257.937 313.746 L 257.540 315.069 253.941 314.946 C 249.370 314.790,248.676 314.334,249.492 312.024 C 249.771 311.231,250.000 310.008,250.000 309.305 L 250.000 308.027 252.750 307.915 C 254.262 307.853,256.137 307.772,256.917 307.735 L 258.333 307.667 258.333 310.045 M184.417 308.563 L 186.000 308.760 186.000 310.224 C 186.000 311.029,185.788 312.196,185.528 312.817 C 185.269 313.438,185.156 314.053,185.278 314.185 C 185.549 314.478,177.400 314.136,176.583 313.821 C 175.076 313.238,180.111 307.815,181.833 308.164 C 182.383 308.276,183.546 308.456,184.417 308.563 M191.500 309.335 C 196.609 310.038,196.598 310.025,195.060 313.249 L 194.543 314.333 190.289 314.333 L 186.034 314.333 186.517 313.177 C 186.783 312.542,187.000 311.342,187.000 310.511 C 187.000 308.764,187.123 308.732,191.500 309.335 M206.154 310.823 C 203.087 313.288,200.559 314.288,197.313 314.319 L 195.792 314.333 196.479 312.220 L 197.167 310.107 200.167 310.245 C 201.817 310.322,203.992 310.250,205.000 310.087 C 207.256 309.721,207.405 309.817,206.154 310.823 " stroke="none" fill="#6c4c74" fill-rule="evenodd"></path><path id="path3" d="M242.167 60.667 C 243.070 61.583,243.883 62.333,243.975 62.333 C 244.067 62.333,243.403 61.583,242.500 60.667 C 241.597 59.750,240.783 59.000,240.692 59.000 C 240.600 59.000,241.264 59.750,242.167 60.667 M215.333 66.167 C 214.524 66.992,213.936 67.667,214.028 67.667 C 214.120 67.667,214.857 66.992,215.667 66.167 C 216.476 65.342,217.064 64.667,216.972 64.667 C 216.880 64.667,216.143 65.342,215.333 66.167 M249.744 74.667 C 249.744 75.308,249.813 75.571,249.896 75.250 C 249.980 74.929,249.980 74.404,249.896 74.083 C 249.813 73.762,249.744 74.025,249.744 74.667 M258.751 115.833 C 258.754 116.567,258.823 116.827,258.902 116.413 C 258.982 115.998,258.979 115.398,258.896 115.079 C 258.812 114.761,258.747 115.100,258.751 115.833 M188.667 119.500 C 189.289 120.142,189.872 120.667,189.964 120.667 C 190.056 120.667,189.622 120.142,189.000 119.500 C 188.378 118.858,187.794 118.333,187.703 118.333 C 187.611 118.333,188.045 118.858,188.667 119.500 M262.128 125.229 C 262.475 125.647,262.626 126.145,262.484 126.396 C 262.283 126.749,262.323 126.753,262.688 126.413 C 263.066 126.062,263.007 125.869,262.333 125.246 C 261.543 124.517,261.538 124.516,262.128 125.229 M264.917 127.235 C 265.329 127.315,266.004 127.315,266.417 127.235 C 266.829 127.156,266.492 127.091,265.667 127.091 C 264.842 127.091,264.504 127.156,264.917 127.235 M321.135 153.500 C 321.135 156.433,321.186 157.589,321.248 156.068 C 321.310 154.546,321.310 152.146,321.247 150.734 C 321.185 149.322,321.135 150.567,321.135 153.500 M322.411 163.667 C 322.411 164.308,322.479 164.571,322.563 164.250 C 322.647 163.929,322.647 163.404,322.563 163.083 C 322.479 162.762,322.411 163.025,322.411 163.667 M199.222 163.556 C 198.750 164.028,199.038 164.331,199.917 164.288 C 200.710 164.249,200.732 164.223,200.078 164.097 C 199.663 164.018,199.410 163.813,199.515 163.643 C 199.736 163.285,199.549 163.229,199.222 163.556 M247.917 164.902 C 248.329 164.981,249.004 164.981,249.417 164.902 C 249.829 164.822,249.492 164.757,248.667 164.757 C 247.842 164.757,247.504 164.822,247.917 164.902 M198.583 166.235 C 198.996 166.315,199.671 166.315,200.083 166.235 C 200.496 166.156,200.158 166.091,199.333 166.091 C 198.508 166.091,198.171 166.156,198.583 166.235 M160.319 169.083 C 161.137 169.954,161.849 170.667,161.903 170.667 C 162.153 170.667,161.888 170.367,160.417 168.986 L 158.833 167.500 160.319 169.083 M189.921 169.902 C 190.335 169.982,190.935 169.979,191.254 169.896 C 191.573 169.812,191.233 169.747,190.500 169.751 C 189.767 169.754,189.506 169.823,189.921 169.902 M218.083 172.230 C 218.404 172.314,218.929 172.314,219.250 172.230 C 219.571 172.146,219.308 172.077,218.667 172.077 C 218.025 172.077,217.762 172.146,218.083 172.230 M187.389 173.500 C 187.694 173.867,188.009 174.617,188.089 175.167 L 188.233 176.167 188.283 175.135 C 188.317 174.433,188.094 173.900,187.583 173.468 C 186.839 172.838,186.838 172.839,187.389 173.500 M142.167 176.000 C 142.883 176.733,143.544 177.333,143.635 177.333 C 143.727 177.333,143.216 176.733,142.500 176.000 C 141.784 175.267,141.123 174.667,141.031 174.667 C 140.940 174.667,141.451 175.267,142.167 176.000 M168.228 184.916 C 171.745 184.970,177.595 184.970,181.228 184.916 C 184.861 184.862,181.983 184.818,174.833 184.818 C 167.683 184.818,164.711 184.862,168.228 184.916 M206.906 190.674 C 207.496 191.293,208.035 191.732,208.104 191.650 C 208.173 191.567,207.690 191.061,207.031 190.524 L 205.833 189.548 206.906 190.674 M205.500 191.667 C 206.216 192.400,206.877 193.000,206.969 193.000 C 207.060 193.000,206.549 192.400,205.833 191.667 C 205.117 190.933,204.456 190.333,204.365 190.333 C 204.273 190.333,204.784 190.933,205.500 191.667 M180.479 191.750 L 179.500 192.833 180.583 191.854 C 181.593 190.942,181.820 190.667,181.562 190.667 C 181.505 190.667,181.017 191.154,180.479 191.750 M187.744 210.333 C 187.744 210.975,187.813 211.237,187.896 210.917 C 187.980 210.596,187.980 210.071,187.896 209.750 C 187.813 209.429,187.744 209.692,187.744 210.333 M234.649 210.583 L 233.500 211.833 234.750 210.685 C 235.913 209.615,236.153 209.333,235.899 209.333 C 235.843 209.333,235.281 209.896,234.649 210.583 M229.744 216.667 C 229.744 217.308,229.813 217.571,229.896 217.250 C 229.980 216.929,229.980 216.404,229.896 216.083 C 229.813 215.762,229.744 216.025,229.744 216.667 M271.982 218.583 L 270.833 219.833 272.083 218.685 C 273.247 217.615,273.487 217.333,273.232 217.333 C 273.176 217.333,272.614 217.896,271.982 218.583 M169.744 220.000 C 169.744 220.642,169.813 220.904,169.896 220.583 C 169.980 220.262,169.980 219.737,169.896 219.417 C 169.813 219.096,169.744 219.358,169.744 220.000 M208.587 221.236 C 209.002 221.315,209.602 221.312,209.921 221.229 C 210.239 221.146,209.900 221.080,209.167 221.084 C 208.433 221.088,208.173 221.156,208.587 221.236 M206.250 222.902 C 206.662 222.981,207.338 222.981,207.750 222.902 C 208.162 222.822,207.825 222.757,207.000 222.757 C 206.175 222.757,205.838 222.822,206.250 222.902 M249.750 227.230 C 250.071 227.314,250.596 227.314,250.917 227.230 C 251.237 227.146,250.975 227.077,250.333 227.077 C 249.692 227.077,249.429 227.146,249.750 227.230 M253.750 227.230 C 254.071 227.314,254.596 227.314,254.917 227.230 C 255.237 227.146,254.975 227.077,254.333 227.077 C 253.692 227.077,253.429 227.146,253.750 227.230 M275.667 236.686 C 275.667 237.430,275.788 237.965,275.935 237.873 C 276.194 237.714,276.064 235.333,275.797 235.333 C 275.725 235.333,275.667 235.942,275.667 236.686 M79.091 251.667 C 79.091 252.492,79.156 252.829,79.235 252.417 C 79.315 252.004,79.315 251.329,79.235 250.917 C 79.156 250.504,79.091 250.842,79.091 251.667 M283.649 259.250 L 282.500 260.500 283.750 259.351 C 284.438 258.719,285.000 258.157,285.000 258.101 C 285.000 257.847,284.718 258.087,283.649 259.250 M212.650 292.759 C 212.813 294.132,212.820 294.139,212.933 293.041 C 212.996 292.422,212.922 291.788,212.766 291.633 C 212.611 291.478,212.559 291.984,212.650 292.759 M250.250 306.908 C 250.846 306.982,251.821 306.982,252.417 306.908 C 253.012 306.834,252.525 306.773,251.333 306.773 C 250.142 306.773,249.654 306.834,250.250 306.908 M211.556 307.222 C 211.112 307.666,211.350 307.999,212.083 307.961 C 212.654 307.932,212.693 307.886,212.246 307.769 C 211.923 307.685,211.744 307.478,211.849 307.308 C 212.069 306.951,211.881 306.896,211.556 307.222 M269.109 309.500 C 269.111 310.783,269.171 311.267,269.243 310.576 C 269.315 309.884,269.314 308.834,269.241 308.243 C 269.167 307.651,269.108 308.217,269.109 309.500 M215.254 307.902 C 215.669 307.982,216.269 307.979,216.587 307.896 C 216.906 307.812,216.567 307.747,215.833 307.751 C 215.100 307.754,214.839 307.823,215.254 307.902 M118.083 308.563 C 118.404 308.647,118.929 308.647,119.250 308.563 C 119.571 308.479,119.308 308.411,118.667 308.411 C 118.025 308.411,117.763 308.479,118.083 308.563 M179.146 309.750 L 178.167 310.833 179.250 309.854 C 179.846 309.316,180.333 308.828,180.333 308.771 C 180.333 308.513,180.058 308.740,179.146 309.750 M259.429 310.167 C 259.431 311.083,259.496 311.419,259.573 310.912 C 259.649 310.405,259.647 309.655,259.568 309.245 C 259.489 308.835,259.426 309.250,259.429 310.167 M200.243 309.241 C 200.834 309.314,201.884 309.315,202.576 309.243 C 203.267 309.171,202.783 309.111,201.500 309.109 C 200.217 309.108,199.651 309.167,200.243 309.241 M181.583 314.235 C 181.996 314.315,182.671 314.315,183.083 314.235 C 183.496 314.156,183.158 314.091,182.333 314.091 C 181.508 314.091,181.171 314.156,181.583 314.235 M287.254 314.569 C 287.669 314.649,288.269 314.646,288.587 314.562 C 288.906 314.479,288.567 314.414,287.833 314.417 C 287.100 314.421,286.839 314.489,287.254 314.569 M252.750 314.896 C 253.071 314.980,253.596 314.980,253.917 314.896 C 254.237 314.813,253.975 314.744,253.333 314.744 C 252.692 314.744,252.429 314.813,252.750 314.896 M262.921 314.902 C 263.335 314.982,263.935 314.979,264.254 314.896 C 264.573 314.812,264.233 314.747,263.500 314.751 C 262.767 314.754,262.506 314.823,262.921 314.902 M290.333 320.438 C 290.333 320.495,290.821 320.983,291.417 321.521 L 292.500 322.500 291.521 321.417 C 290.608 320.407,290.333 320.180,290.333 320.438 M204.812 324.083 L 203.833 325.167 204.917 324.188 C 205.512 323.649,206.000 323.162,206.000 323.104 C 206.000 322.847,205.725 323.074,204.812 324.083 M228.773 328.500 C 228.818 328.953,229.107 329.184,229.670 329.221 C 230.366 329.267,230.382 329.250,229.770 329.117 C 229.369 329.030,228.965 328.706,228.873 328.396 C 228.752 327.991,228.724 328.020,228.773 328.500 M259.000 329.500 C 259.622 330.142,260.206 330.667,260.297 330.667 C 260.389 330.667,259.955 330.142,259.333 329.500 C 258.711 328.858,258.128 328.333,258.036 328.333 C 257.944 328.333,258.378 328.858,259.000 329.500 M153.083 337.896 C 153.404 337.980,153.929 337.980,154.250 337.896 C 154.571 337.813,154.308 337.744,153.667 337.744 C 153.025 337.744,152.762 337.813,153.083 337.896 M228.583 339.912 C 229.546 339.980,231.121 339.980,232.083 339.912 C 233.046 339.845,232.258 339.790,230.333 339.790 C 228.408 339.790,227.621 339.845,228.583 339.912 M261.256 344.242 C 261.855 344.316,262.755 344.314,263.256 344.238 C 263.757 344.162,263.267 344.101,262.167 344.103 C 261.067 344.105,260.657 344.167,261.256 344.242 M185.088 344.906 C 185.595 344.982,186.345 344.980,186.755 344.901 C 187.165 344.822,186.750 344.760,185.833 344.762 C 184.917 344.765,184.581 344.829,185.088 344.906 M189.755 344.906 C 190.261 344.982,191.011 344.980,191.421 344.901 C 191.831 344.822,191.417 344.760,190.500 344.762 C 189.583 344.765,189.248 344.829,189.755 344.906 " stroke="none" fill="#a9acae" fill-rule="evenodd"></path><path id="path4" d="M238.095 68.500 C 238.098 69.417,238.163 69.752,238.239 69.245 C 238.316 68.739,238.314 67.989,238.235 67.579 C 238.156 67.169,238.093 67.583,238.095 68.500 M216.750 111.239 C 217.254 111.315,218.079 111.315,218.583 111.239 C 219.088 111.162,218.675 111.100,217.667 111.100 C 216.658 111.100,216.246 111.162,216.750 111.239 M168.333 121.500 C 168.955 122.142,169.539 122.667,169.631 122.667 C 169.722 122.667,169.289 122.142,168.667 121.500 C 168.045 120.858,167.461 120.333,167.369 120.333 C 167.278 120.333,167.711 120.858,168.333 121.500 M153.785 145.833 C 153.784 147.483,153.840 148.200,153.910 147.427 C 153.980 146.653,153.981 145.303,153.912 144.427 C 153.843 143.550,153.786 144.183,153.785 145.833 M206.103 146.167 C 206.105 147.267,206.167 147.676,206.242 147.077 C 206.316 146.478,206.314 145.578,206.238 145.077 C 206.162 144.576,206.101 145.067,206.103 146.167 M141.750 152.896 C 142.071 152.980,142.596 152.980,142.917 152.896 C 143.237 152.813,142.975 152.744,142.333 152.744 C 141.692 152.744,141.429 152.813,141.750 152.896 M322.770 156.833 C 322.772 157.933,322.834 158.343,322.908 157.744 C 322.982 157.145,322.981 156.245,322.905 155.744 C 322.829 155.243,322.768 155.733,322.770 156.833 M244.250 166.235 C 244.662 166.315,245.338 166.315,245.750 166.235 C 246.162 166.156,245.825 166.091,245.000 166.091 C 244.175 166.091,243.838 166.156,244.250 166.235 M193.764 169.914 C 195.009 169.978,196.959 169.978,198.097 169.913 C 199.235 169.848,198.217 169.796,195.833 169.796 C 193.450 169.797,192.519 169.850,193.764 169.914 M269.500 177.667 C 270.403 178.583,271.217 179.333,271.308 179.333 C 271.400 179.333,270.736 178.583,269.833 177.667 C 268.930 176.750,268.117 176.000,268.025 176.000 C 267.933 176.000,268.597 176.750,269.500 177.667 M151.250 195.583 C 155.696 195.636,162.971 195.636,167.417 195.583 C 171.862 195.531,168.225 195.488,159.333 195.488 C 150.442 195.488,146.804 195.531,151.250 195.583 M137.433 210.000 C 137.433 211.008,137.496 211.421,137.572 210.917 C 137.648 210.412,137.648 209.588,137.572 209.083 C 137.496 208.579,137.433 208.992,137.433 210.000 M143.560 224.250 C 147.993 224.302,155.343 224.302,159.894 224.250 C 164.444 224.197,160.817 224.154,151.833 224.154 C 142.850 224.154,139.127 224.197,143.560 224.250 M251.750 227.230 C 252.071 227.314,252.596 227.314,252.917 227.230 C 253.237 227.146,252.975 227.077,252.333 227.077 C 251.692 227.077,251.429 227.146,251.750 227.230 M139.100 241.000 C 139.100 242.008,139.162 242.421,139.239 241.917 C 139.315 241.412,139.315 240.588,139.239 240.083 C 139.162 239.579,139.100 239.992,139.100 241.000 M205.479 254.083 L 204.500 255.167 205.583 254.188 C 206.179 253.649,206.667 253.162,206.667 253.104 C 206.667 252.847,206.392 253.074,205.479 254.083 M178.621 254.080 C 179.052 254.629,178.227 254.665,163.121 254.750 L 147.167 254.840 163.250 254.920 C 172.315 254.965,179.333 254.872,179.333 254.707 C 179.333 254.547,179.071 254.209,178.750 253.957 C 178.222 253.543,178.210 253.555,178.621 254.080 M277.767 285.333 C 277.767 286.342,277.829 286.754,277.905 286.250 C 277.982 285.746,277.982 284.921,277.905 284.417 C 277.829 283.912,277.767 284.325,277.767 285.333 M253.917 306.902 C 254.329 306.981,255.004 306.981,255.417 306.902 C 255.829 306.822,255.492 306.757,254.667 306.757 C 253.842 306.757,253.504 306.822,253.917 306.902 M213.083 307.896 C 213.404 307.980,213.929 307.980,214.250 307.896 C 214.571 307.813,214.308 307.744,213.667 307.744 C 213.025 307.744,212.762 307.813,213.083 307.896 M255.750 307.896 C 256.071 307.980,256.596 307.980,256.917 307.896 C 257.237 307.813,256.975 307.744,256.333 307.744 C 255.692 307.744,255.429 307.813,255.750 307.896 M120.254 308.569 C 120.669 308.649,121.269 308.646,121.587 308.562 C 121.906 308.479,121.567 308.414,120.833 308.417 C 120.100 308.421,119.839 308.489,120.254 308.569 M131.417 308.563 C 131.737 308.647,132.262 308.647,132.583 308.563 C 132.904 308.479,132.642 308.411,132.000 308.411 C 131.358 308.411,131.096 308.479,131.417 308.563 M169.417 313.245 C 170.287 313.314,171.713 313.314,172.583 313.245 C 173.454 313.176,172.742 313.120,171.000 313.120 C 169.258 313.120,168.546 313.176,169.417 313.245 M123.925 342.244 C 124.709 342.315,125.909 342.314,126.592 342.242 C 127.275 342.171,126.633 342.113,125.167 342.114 C 123.700 342.115,123.141 342.174,123.925 342.244 " stroke="none" fill="#8f8c93" fill-rule="evenodd"></path></g></svg>